<?xml version="1.0" standalone="no"?>
<!DOCTYPE svg PUBLIC "-//W3C//DTD SVG 20010904//EN"
 "http://www.w3.org/TR/2001/REC-SVG-20010904/DTD/svg10.dtd">
<svg version="1.0" xmlns="http://www.w3.org/2000/svg"
 width="700.000000pt" height="700.000000pt" viewBox="0 0 700.000000 700.000000"
 preserveAspectRatio="xMidYMid meet">
<metadata>
Created by potrace 1.11, written by Peter Selinger 2001-2013
</metadata>
<g transform="translate(0.000000,700.000000) scale(0.100000,-0.100000)"
fill="#000000" stroke="none">
<path d="M1665 5700 c-2 -3 -3 -152 -3 -332 l1 -328 520 -2 521 -3 1 -1865 c1
-1026 3 -1868 4 -1871 1 -5 2593 -5 2623 0 3 0 5 146 5 322 l-2 322 -912 0
-913 0 0 1548 0 1549 538 2 537 3 0 330 0 330 -1458 0 c-802 0 -1460 -2 -1462
-5z"/>
</g>
</svg>
